<svg width="393" height="100" viewBox="0 0 393 100" fill="none" xmlns="http://www.w3.org/2000/svg">
<rect width="393" height="100" rx="12" fill="#ECECEC"/>
<rect x="11" y="10" width="76" height="70" rx="12" fill="#34A853"/>
<path d="M48.8252 42C54.348 42 58.8252 37.5228 58.8252 32C58.8252 26.4772 54.348 22 48.8252 22C43.3023 22 38.8252 26.4772 38.8252 32C38.8252 33.5997 39.2008 35.1116 39.8687 36.4525C40.0461 36.8088 40.1052 37.2161 40.0023 37.6006L39.4067 39.8267C39.1481 40.793 40.0322 41.677 40.9985 41.4185L43.2246 40.8229C43.6091 40.72 44.0164 40.7791 44.3727 40.9565C45.7136 41.6244 47.2255 42 48.8252 42Z" fill="white"/>
<path d="M51.8252 32C51.8252 32.5523 52.2729 33 52.8252 33C53.3775 33 53.8252 32.5523 53.8252 32C53.8252 31.4477 53.3775 31 52.8252 31C52.2729 31 51.8252 31.4477 51.8252 32Z" fill="#34A853"/>
<path d="M47.8252 32C47.8252 32.5523 48.2729 33 48.8252 33C49.3775 33 49.8252 32.5523 49.8252 32C49.8252 31.4477 49.3775 31 48.8252 31C48.2729 31 47.8252 31.4477 47.8252 32Z" fill="#34A853"/>
<path d="M43.8252 32C43.8252 32.5523 44.2729 33 44.8252 33C45.3775 33 45.8252 32.5523 45.8252 32C45.8252 31.4477 45.3775 31 44.8252 31C44.2729 31 43.8252 31.4477 43.8252 32Z" fill="#34A853"/>
<path d="M38.957 61.2227H40.4219C40.375 61.7812 40.2188 62.2793 39.9531 62.7168C39.6875 63.1504 39.3145 63.4922 38.834 63.7422C38.3535 63.9922 37.7695 64.1172 37.082 64.1172C36.5547 64.1172 36.0801 64.0234 35.6582 63.8359C35.2363 63.6445 34.875 63.375 34.5742 63.0273C34.2734 62.6758 34.043 62.252 33.8828 61.7559C33.7266 61.2598 33.6484 60.7051 33.6484 60.0918V59.3828C33.6484 58.7695 33.7285 58.2148 33.8887 57.7188C34.0527 57.2227 34.2871 56.7988 34.5918 56.4473C34.8965 56.0918 35.2617 55.8203 35.6875 55.6328C36.1172 55.4453 36.5996 55.3516 37.1348 55.3516C37.8145 55.3516 38.3887 55.4766 38.8574 55.7266C39.3262 55.9766 39.6895 56.3223 39.9473 56.7637C40.209 57.2051 40.3691 57.7109 40.4277 58.2812H38.9629C38.9238 57.9141 38.8379 57.5996 38.7051 57.3379C38.5762 57.0762 38.3848 56.877 38.1309 56.7402C37.877 56.5996 37.5449 56.5293 37.1348 56.5293C36.7988 56.5293 36.5059 56.5918 36.2559 56.7168C36.0059 56.8418 35.7969 57.0254 35.6289 57.2676C35.4609 57.5098 35.334 57.8086 35.248 58.1641C35.166 58.5156 35.125 58.918 35.125 59.3711V60.0918C35.125 60.5215 35.1621 60.9121 35.2363 61.2637C35.3145 61.6113 35.4316 61.9102 35.5879 62.1602C35.748 62.4102 35.9512 62.6035 36.1973 62.7402C36.4434 62.877 36.7383 62.9453 37.082 62.9453C37.5 62.9453 37.8379 62.8789 38.0957 62.7461C38.3574 62.6133 38.5547 62.4199 38.6875 62.166C38.8242 61.9082 38.9141 61.5938 38.957 61.2227ZM43.0117 55V64H41.6055V55H43.0117ZM42.7656 60.5957L42.3086 60.5898C42.3125 60.1523 42.373 59.748 42.4902 59.377C42.6113 59.0059 42.7793 58.6836 42.9941 58.4102C43.2129 58.1328 43.4746 57.9199 43.7793 57.7715C44.084 57.6191 44.4219 57.543 44.793 57.543C45.1055 57.543 45.3867 57.5859 45.6367 57.6719C45.8906 57.7578 46.1094 57.8965 46.293 58.0879C46.4766 58.2754 46.6152 58.5215 46.709 58.8262C46.8066 59.127 46.8555 59.4941 46.8555 59.9277V64H45.4375V59.916C45.4375 59.6113 45.3926 59.3691 45.3027 59.1895C45.2168 59.0098 45.0898 58.8809 44.9219 58.8027C44.7539 58.7207 44.5488 58.6797 44.3066 58.6797C44.0527 58.6797 43.8281 58.7305 43.6328 58.832C43.4414 58.9336 43.2812 59.0723 43.1523 59.248C43.0234 59.4238 42.9258 59.627 42.8594 59.8574C42.7969 60.0879 42.7656 60.334 42.7656 60.5957ZM51.8594 62.7285V59.7051C51.8594 59.4785 51.8184 59.2832 51.7363 59.1191C51.6543 58.9551 51.5293 58.8281 51.3613 58.7383C51.1973 58.6484 50.9902 58.6035 50.7402 58.6035C50.5098 58.6035 50.3105 58.6426 50.1426 58.7207C49.9746 58.7988 49.8438 58.9043 49.75 59.0371C49.6562 59.1699 49.6094 59.3203 49.6094 59.4883H48.2031C48.2031 59.2383 48.2637 58.9961 48.3848 58.7617C48.5059 58.5273 48.6816 58.3184 48.9121 58.1348C49.1426 57.9512 49.418 57.8066 49.7383 57.7012C50.0586 57.5957 50.418 57.543 50.8164 57.543C51.293 57.543 51.7148 57.623 52.082 57.7832C52.4531 57.9434 52.7441 58.1855 52.9551 58.5098C53.1699 58.8301 53.2773 59.2324 53.2773 59.7168V62.5352C53.2773 62.8242 53.2969 63.084 53.3359 63.3145C53.3789 63.541 53.4395 63.7383 53.5176 63.9062V64H52.0703C52.0039 63.8477 51.9512 63.6543 51.9121 63.4199C51.877 63.1816 51.8594 62.9512 51.8594 62.7285ZM52.0645 60.1445L52.0762 61.0176H51.0625C50.8008 61.0176 50.5703 61.043 50.3711 61.0938C50.1719 61.1406 50.0059 61.2109 49.873 61.3047C49.7402 61.3984 49.6406 61.5117 49.5742 61.6445C49.5078 61.7773 49.4746 61.9277 49.4746 62.0957C49.4746 62.2637 49.5137 62.418 49.5918 62.5586C49.6699 62.6953 49.7832 62.8027 49.9316 62.8809C50.084 62.959 50.2676 62.998 50.4824 62.998C50.7715 62.998 51.0234 62.9395 51.2383 62.8223C51.457 62.7012 51.6289 62.5547 51.7539 62.3828C51.8789 62.207 51.9453 62.041 51.9531 61.8848L52.4102 62.5117C52.3633 62.6719 52.2832 62.8438 52.1699 63.0273C52.0566 63.2109 51.9082 63.3867 51.7246 63.5547C51.5449 63.7188 51.3281 63.8535 51.0742 63.959C50.8242 64.0645 50.5352 64.1172 50.207 64.1172C49.793 64.1172 49.4238 64.0352 49.0996 63.8711C48.7754 63.7031 48.5215 63.4785 48.3379 63.1973C48.1543 62.9121 48.0625 62.5898 48.0625 62.2305C48.0625 61.8945 48.125 61.5977 48.25 61.3398C48.3789 61.0781 48.5664 60.8594 48.8125 60.6836C49.0625 60.5078 49.3672 60.375 49.7266 60.2852C50.0859 60.1914 50.4961 60.1445 50.957 60.1445H52.0645ZM57.6602 57.6602V58.6914H54.0859V57.6602H57.6602ZM55.1172 56.1074H56.5293V62.248C56.5293 62.4434 56.5566 62.5938 56.6113 62.6992C56.6699 62.8008 56.75 62.8691 56.8516 62.9043C56.9531 62.9395 57.0723 62.957 57.209 62.957C57.3066 62.957 57.4004 62.9512 57.4902 62.9395C57.5801 62.9277 57.6523 62.916 57.707 62.9043L57.7129 63.9824C57.5957 64.0176 57.459 64.0488 57.3027 64.0762C57.1504 64.1035 56.9746 64.1172 56.7754 64.1172C56.4512 64.1172 56.1641 64.0605 55.9141 63.9473C55.6641 63.8301 55.4688 63.6406 55.3281 63.3789C55.1875 63.1172 55.1172 62.7695 55.1172 62.3359V56.1074ZM62.3066 62.2832C62.3066 62.1426 62.2715 62.0156 62.2012 61.9023C62.1309 61.7852 61.9961 61.6797 61.7969 61.5859C61.6016 61.4922 61.3125 61.4062 60.9297 61.3281C60.5938 61.2539 60.2852 61.166 60.0039 61.0645C59.7266 60.959 59.4883 60.832 59.2891 60.6836C59.0898 60.5352 58.9355 60.3594 58.8262 60.1562C58.7168 59.9531 58.6621 59.7188 58.6621 59.4531C58.6621 59.1953 58.7188 58.9512 58.832 58.7207C58.9453 58.4902 59.1074 58.2871 59.3184 58.1113C59.5293 57.9355 59.7852 57.7969 60.0859 57.6953C60.3906 57.5938 60.7305 57.543 61.1055 57.543C61.6367 57.543 62.0918 57.6328 62.4707 57.8125C62.8535 57.9883 63.1465 58.2285 63.3496 58.5332C63.5527 58.834 63.6543 59.1738 63.6543 59.5527H62.2422C62.2422 59.3848 62.1992 59.2285 62.1133 59.084C62.0312 58.9355 61.9062 58.8164 61.7383 58.7266C61.5703 58.6328 61.3594 58.5859 61.1055 58.5859C60.8633 58.5859 60.6621 58.625 60.502 58.7031C60.3457 58.7773 60.2285 58.875 60.1504 58.9961C60.0762 59.1172 60.0391 59.25 60.0391 59.3945C60.0391 59.5 60.0586 59.5957 60.0977 59.6816C60.1406 59.7637 60.2109 59.8398 60.3086 59.9102C60.4062 59.9766 60.5391 60.0391 60.707 60.0977C60.8789 60.1562 61.0938 60.2129 61.3516 60.2676C61.8359 60.3691 62.252 60.5 62.5996 60.6602C62.9512 60.8164 63.2207 61.0195 63.4082 61.2695C63.5957 61.5156 63.6895 61.8281 63.6895 62.207C63.6895 62.4883 63.6289 62.7461 63.5078 62.9805C63.3906 63.2109 63.2188 63.4121 62.9922 63.584C62.7656 63.752 62.4941 63.8828 62.1777 63.9766C61.8652 64.0703 61.5137 64.1172 61.123 64.1172C60.5488 64.1172 60.0625 64.0156 59.6641 63.8125C59.2656 63.6055 58.9629 63.3418 58.7559 63.0215C58.5527 62.6973 58.4512 62.3613 58.4512 62.0137H59.8164C59.832 62.2754 59.9043 62.4844 60.0332 62.6406C60.166 62.793 60.3301 62.9043 60.5254 62.9746C60.7246 63.041 60.9297 63.0742 61.1406 63.0742C61.3945 63.0742 61.6074 63.041 61.7793 62.9746C61.9512 62.9043 62.082 62.8105 62.1719 62.6934C62.2617 62.5723 62.3066 62.4355 62.3066 62.2832Z" fill="white"/>
<g clip-path="url(#clip0_52_495)">
<path fill-rule="evenodd" clip-rule="evenodd" d="M147.875 19.25C145.252 19.25 143.125 21.3766 143.125 24C143.125 26.6234 145.252 28.75 147.875 28.75C150.498 28.75 152.625 26.6234 152.625 24C152.625 21.3766 150.498 19.25 147.875 19.25ZM144.625 24C144.625 22.2051 146.08 20.75 147.875 20.75C149.67 20.75 151.125 22.2051 151.125 24C151.125 25.7949 149.67 27.25 147.875 27.25C146.08 27.25 144.625 25.7949 144.625 24Z" fill="#9A9BB1"/>
<path d="M153.875 21.25C153.461 21.25 153.125 21.5858 153.125 22C153.125 22.4142 153.461 22.75 153.875 22.75C155.251 22.75 156.125 23.6557 156.125 24.5C156.125 25.3443 155.251 26.25 153.875 26.25C153.461 26.25 153.125 26.5858 153.125 27C153.125 27.4142 153.461 27.75 153.875 27.75C155.812 27.75 157.625 26.4172 157.625 24.5C157.625 22.5828 155.812 21.25 153.875 21.25Z" fill="#9A9BB1"/>
<path d="M142.625 22C142.625 21.5858 142.289 21.25 141.875 21.25C139.938 21.25 138.125 22.5828 138.125 24.5C138.125 26.4172 139.938 27.75 141.875 27.75C142.289 27.75 142.625 27.4142 142.625 27C142.625 26.5858 142.289 26.25 141.875 26.25C140.499 26.25 139.625 25.3443 139.625 24.5C139.625 23.6557 140.499 22.75 141.875 22.75C142.289 22.75 142.625 22.4142 142.625 22Z" fill="#9A9BB1"/>
<path fill-rule="evenodd" clip-rule="evenodd" d="M147.875 30.25C146.091 30.25 144.441 30.7308 143.216 31.5475C141.996 32.3608 141.125 33.5666 141.125 35C141.125 36.4334 141.996 37.6392 143.216 38.4525C144.441 39.2692 146.091 39.75 147.875 39.75C149.659 39.75 151.309 39.2692 152.534 38.4525C153.754 37.6392 154.625 36.4334 154.625 35C154.625 33.5666 153.754 32.3608 152.534 31.5475C151.309 30.7308 149.659 30.25 147.875 30.25ZM142.625 35C142.625 34.2242 143.097 33.4301 144.048 32.7956C144.995 32.1646 146.346 31.75 147.875 31.75C149.404 31.75 150.755 32.1646 151.702 32.7956C152.653 33.4301 153.125 34.2242 153.125 35C153.125 35.7758 152.653 36.5699 151.702 37.2044C150.755 37.8354 149.404 38.25 147.875 38.25C146.346 38.25 144.995 37.8354 144.048 37.2044C143.097 36.5699 142.625 35.7758 142.625 35Z" fill="#9A9BB1"/>
<path d="M155.142 31.8393C155.231 31.4347 155.631 31.1787 156.036 31.2674C156.998 31.4783 157.864 31.8593 158.508 32.3859C159.151 32.912 159.625 33.6352 159.625 34.5C159.625 35.3648 159.151 36.088 158.508 36.6141C157.864 37.1407 156.998 37.5217 156.036 37.7326C155.631 37.8213 155.231 37.5653 155.142 37.1607C155.054 36.7561 155.31 36.3561 155.714 36.2674C156.507 36.0936 157.14 35.7952 157.558 35.4532C157.976 35.1108 158.125 34.7763 158.125 34.5C158.125 34.2237 157.976 33.8892 157.558 33.5468C157.14 33.2048 156.507 32.9064 155.714 32.7326C155.31 32.6439 155.054 32.2439 155.142 31.8393Z" fill="#9A9BB1"/>
<path d="M139.714 31.2674C140.119 31.1787 140.519 31.4347 140.608 31.8393C140.696 32.2439 140.44 32.6439 140.036 32.7326C139.243 32.9064 138.61 33.2048 138.192 33.5468C137.774 33.8892 137.625 34.2237 137.625 34.5C137.625 34.7763 137.774 35.1108 138.192 35.4532C138.61 35.7952 139.243 36.0936 140.036 36.2674C140.44 36.3561 140.696 36.7561 140.608 37.1607C140.519 37.5653 140.119 37.8213 139.714 37.7326C138.752 37.5217 137.886 37.1407 137.242 36.6141C136.599 36.088 136.125 35.3648 136.125 34.5C136.125 33.6352 136.599 32.912 137.242 32.3859C137.886 31.8593 138.752 31.4783 139.714 31.2674Z" fill="#9A9BB1"/>
</g>
<path d="M135.576 59.6406V62.8984C135.455 63.0586 135.266 63.2344 135.008 63.4258C134.754 63.6133 134.416 63.7754 133.994 63.9121C133.572 64.0488 133.047 64.1172 132.418 64.1172C131.883 64.1172 131.393 64.0273 130.947 63.8477C130.502 63.6641 130.117 63.3965 129.793 63.0449C129.473 62.6934 129.225 62.2656 129.049 61.7617C128.873 61.2539 128.785 60.6758 128.785 60.0273V59.4355C128.785 58.791 128.865 58.2168 129.025 57.7129C129.189 57.2051 129.424 56.7754 129.729 56.4238C130.033 56.0723 130.4 55.8066 130.83 55.627C131.264 55.4434 131.754 55.3516 132.301 55.3516C133 55.3516 133.578 55.4688 134.035 55.7031C134.496 55.9336 134.852 56.2539 135.102 56.6641C135.352 57.0742 135.51 57.543 135.576 58.0703H134.135C134.088 57.7734 133.996 57.5078 133.859 57.2734C133.727 57.0391 133.535 56.8555 133.285 56.7227C133.039 56.5859 132.719 56.5176 132.324 56.5176C131.984 56.5176 131.686 56.582 131.428 56.7109C131.17 56.8398 130.955 57.0293 130.783 57.2793C130.615 57.5293 130.488 57.834 130.402 58.1934C130.316 58.5527 130.273 58.9629 130.273 59.4238V60.0273C130.273 60.4961 130.322 60.9121 130.42 61.2754C130.521 61.6387 130.666 61.9453 130.854 62.1953C131.045 62.4453 131.277 62.6348 131.551 62.7637C131.824 62.8887 132.133 62.9512 132.477 62.9512C132.812 62.9512 133.088 62.9238 133.303 62.8691C133.518 62.8105 133.688 62.7422 133.812 62.6641C133.941 62.582 134.041 62.5039 134.111 62.4297V60.7363H132.336V59.6406H135.576ZM138.482 58.8672V64H137.07V57.6602H138.418L138.482 58.8672ZM140.422 57.6191L140.41 58.9316C140.324 58.916 140.23 58.9043 140.129 58.8965C140.031 58.8887 139.934 58.8848 139.836 58.8848C139.594 58.8848 139.381 58.9199 139.197 58.9902C139.014 59.0566 138.859 59.1543 138.734 59.2832C138.613 59.4082 138.52 59.5605 138.453 59.7402C138.387 59.9199 138.348 60.1211 138.336 60.3438L138.014 60.3672C138.014 59.9688 138.053 59.5996 138.131 59.2598C138.209 58.9199 138.326 58.6211 138.482 58.3633C138.643 58.1055 138.842 57.9043 139.08 57.7598C139.322 57.6152 139.602 57.543 139.918 57.543C140.004 57.543 140.096 57.5508 140.193 57.5664C140.295 57.582 140.371 57.5996 140.422 57.6191ZM140.885 60.9004V60.7656C140.885 60.3086 140.951 59.8848 141.084 59.4941C141.217 59.0996 141.408 58.7578 141.658 58.4688C141.912 58.1758 142.221 57.9492 142.584 57.7891C142.951 57.625 143.365 57.543 143.826 57.543C144.291 57.543 144.705 57.625 145.068 57.7891C145.436 57.9492 145.746 58.1758 146 58.4688C146.254 58.7578 146.447 59.0996 146.58 59.4941C146.713 59.8848 146.779 60.3086 146.779 60.7656V60.9004C146.779 61.3574 146.713 61.7812 146.58 62.1719C146.447 62.5625 146.254 62.9043 146 63.1973C145.746 63.4863 145.438 63.7129 145.074 63.877C144.711 64.0371 144.299 64.1172 143.838 64.1172C143.373 64.1172 142.957 64.0371 142.59 63.877C142.227 63.7129 141.918 63.4863 141.664 63.1973C141.41 62.9043 141.217 62.5625 141.084 62.1719C140.951 61.7812 140.885 61.3574 140.885 60.9004ZM142.297 60.7656V60.9004C142.297 61.1855 142.326 61.4551 142.385 61.709C142.443 61.9629 142.535 62.1855 142.66 62.377C142.785 62.5684 142.945 62.7188 143.141 62.8281C143.336 62.9375 143.568 62.9922 143.838 62.9922C144.1 62.9922 144.326 62.9375 144.518 62.8281C144.713 62.7188 144.873 62.5684 144.998 62.377C145.123 62.1855 145.215 61.9629 145.273 61.709C145.336 61.4551 145.367 61.1855 145.367 60.9004V60.7656C145.367 60.4844 145.336 60.2188 145.273 59.9688C145.215 59.7148 145.121 59.4902 144.992 59.2949C144.867 59.0996 144.707 58.9473 144.512 58.8379C144.32 58.7246 144.092 58.668 143.826 58.668C143.561 58.668 143.33 58.7246 143.135 58.8379C142.943 58.9473 142.785 59.0996 142.66 59.2949C142.535 59.4902 142.443 59.7148 142.385 59.9688C142.326 60.2188 142.297 60.4844 142.297 60.7656ZM151.777 62.5059V57.6602H153.195V64H151.859L151.777 62.5059ZM151.977 61.1875L152.451 61.1758C152.451 61.6016 152.404 61.9941 152.311 62.3535C152.217 62.709 152.072 63.0195 151.877 63.2852C151.682 63.5469 151.432 63.752 151.127 63.9004C150.822 64.0449 150.457 64.1172 150.031 64.1172C149.723 64.1172 149.439 64.0723 149.182 63.9824C148.924 63.8926 148.701 63.7539 148.514 63.5664C148.33 63.3789 148.188 63.1348 148.086 62.834C147.984 62.5332 147.934 62.1738 147.934 61.7559V57.6602H149.346V61.7676C149.346 61.998 149.373 62.1914 149.428 62.3477C149.482 62.5 149.557 62.623 149.65 62.7168C149.744 62.8105 149.854 62.877 149.979 62.916C150.104 62.9551 150.236 62.9746 150.377 62.9746C150.779 62.9746 151.096 62.8965 151.326 62.7402C151.561 62.5801 151.727 62.3652 151.824 62.0957C151.926 61.8262 151.977 61.5234 151.977 61.1875ZM156.061 58.8789V66.4375H154.648V57.6602H155.949L156.061 58.8789ZM160.191 60.7715V60.8945C160.191 61.3555 160.137 61.7832 160.027 62.1777C159.922 62.5684 159.764 62.9102 159.553 63.2031C159.346 63.4922 159.09 63.7168 158.785 63.877C158.48 64.0371 158.129 64.1172 157.73 64.1172C157.336 64.1172 156.99 64.0449 156.693 63.9004C156.4 63.752 156.152 63.543 155.949 63.2734C155.746 63.0039 155.582 62.6875 155.457 62.3242C155.336 61.957 155.25 61.5547 155.199 61.1172V60.6426C155.25 60.1777 155.336 59.7559 155.457 59.377C155.582 58.998 155.746 58.6719 155.949 58.3984C156.152 58.125 156.4 57.9141 156.693 57.7656C156.986 57.6172 157.328 57.543 157.719 57.543C158.117 57.543 158.471 57.6211 158.779 57.7773C159.088 57.9297 159.348 58.1484 159.559 58.4336C159.77 58.7148 159.928 59.0547 160.033 59.4531C160.139 59.8477 160.191 60.2871 160.191 60.7715ZM158.779 60.8945V60.7715C158.779 60.4785 158.752 60.207 158.697 59.957C158.643 59.7031 158.557 59.4805 158.439 59.2891C158.322 59.0977 158.172 58.9492 157.988 58.8438C157.809 58.7344 157.592 58.6797 157.338 58.6797C157.088 58.6797 156.873 58.7227 156.693 58.8086C156.514 58.8906 156.363 59.0059 156.242 59.1543C156.121 59.3027 156.027 59.4766 155.961 59.6758C155.895 59.8711 155.848 60.084 155.82 60.3145V61.4512C155.867 61.7324 155.947 61.9902 156.061 62.2246C156.174 62.459 156.334 62.6465 156.541 62.7871C156.752 62.9238 157.021 62.9922 157.35 62.9922C157.604 62.9922 157.82 62.9375 158 62.8281C158.18 62.7188 158.326 62.5684 158.439 62.377C158.557 62.1816 158.643 61.957 158.697 61.7031C158.752 61.4492 158.779 61.1797 158.779 60.8945ZM164.949 62.2832C164.949 62.1426 164.914 62.0156 164.844 61.9023C164.773 61.7852 164.639 61.6797 164.439 61.5859C164.244 61.4922 163.955 61.4062 163.572 61.3281C163.236 61.2539 162.928 61.166 162.646 61.0645C162.369 60.959 162.131 60.832 161.932 60.6836C161.732 60.5352 161.578 60.3594 161.469 60.1562C161.359 59.9531 161.305 59.7188 161.305 59.4531C161.305 59.1953 161.361 58.9512 161.475 58.7207C161.588 58.4902 161.75 58.2871 161.961 58.1113C162.172 57.9355 162.428 57.7969 162.729 57.6953C163.033 57.5938 163.373 57.543 163.748 57.543C164.279 57.543 164.734 57.6328 165.113 57.8125C165.496 57.9883 165.789 58.2285 165.992 58.5332C166.195 58.834 166.297 59.1738 166.297 59.5527H164.885C164.885 59.3848 164.842 59.2285 164.756 59.084C164.674 58.9355 164.549 58.8164 164.381 58.7266C164.213 58.6328 164.002 58.5859 163.748 58.5859C163.506 58.5859 163.305 58.625 163.145 58.7031C162.988 58.7773 162.871 58.875 162.793 58.9961C162.719 59.1172 162.682 59.25 162.682 59.3945C162.682 59.5 162.701 59.5957 162.74 59.6816C162.783 59.7637 162.854 59.8398 162.951 59.9102C163.049 59.9766 163.182 60.0391 163.35 60.0977C163.521 60.1562 163.736 60.2129 163.994 60.2676C164.479 60.3691 164.895 60.5 165.242 60.6602C165.594 60.8164 165.863 61.0195 166.051 61.2695C166.238 61.5156 166.332 61.8281 166.332 62.207C166.332 62.4883 166.271 62.7461 166.15 62.9805C166.033 63.2109 165.861 63.4121 165.635 63.584C165.408 63.752 165.137 63.8828 164.82 63.9766C164.508 64.0703 164.156 64.1172 163.766 64.1172C163.191 64.1172 162.705 64.0156 162.307 63.8125C161.908 63.6055 161.605 63.3418 161.398 63.0215C161.195 62.6973 161.094 62.3613 161.094 62.0137H162.459C162.475 62.2754 162.547 62.4844 162.676 62.6406C162.809 62.793 162.973 62.9043 163.168 62.9746C163.367 63.041 163.572 63.0742 163.783 63.0742C164.037 63.0742 164.25 63.041 164.422 62.9746C164.594 62.9043 164.725 62.8105 164.814 62.6934C164.904 62.5723 164.949 62.4355 164.949 62.2832Z" fill="#9A9BB1"/>
<path fill-rule="evenodd" clip-rule="evenodd" d="M241.775 27C241.775 24.9289 243.454 23.25 245.525 23.25C247.596 23.25 249.275 24.9289 249.275 27C249.275 29.0711 247.596 30.75 245.525 30.75C243.454 30.75 241.775 29.0711 241.775 27ZM245.525 24.75C244.283 24.75 243.275 25.7574 243.275 27C243.275 28.2426 244.283 29.25 245.525 29.25C246.768 29.25 247.775 28.2426 247.775 27C247.775 25.7574 246.768 24.75 245.525 24.75Z" fill="#9A9BB1"/>
<path fill-rule="evenodd" clip-rule="evenodd" d="M234.775 30C234.775 24.0629 239.588 19.25 245.525 19.25C251.462 19.25 256.275 24.0629 256.275 30C256.275 35.9371 251.462 40.75 245.525 40.75C239.588 40.75 234.775 35.9371 234.775 30ZM245.525 20.75C240.417 20.75 236.275 24.8914 236.275 30C236.275 32.5456 237.304 34.851 238.967 36.5235C239.148 35.5504 239.502 34.6329 240.214 33.8951C241.278 32.7915 242.98 32.25 245.525 32.25C248.071 32.25 249.773 32.7915 250.837 33.8951C251.548 34.6329 251.903 35.5505 252.083 36.5236C253.747 34.8511 254.775 32.5456 254.775 30C254.775 24.8914 250.634 20.75 245.525 20.75ZM250.719 37.6554C250.617 36.4435 250.354 35.5553 249.757 34.9363C249.108 34.2628 247.904 33.75 245.525 33.75C243.146 33.75 241.943 34.2628 241.294 34.9363C240.697 35.5553 240.434 36.4434 240.332 37.6553C241.812 38.6618 243.6 39.25 245.525 39.25C247.451 39.25 249.238 38.6618 250.719 37.6554Z" fill="#9A9BB1"/>
<path d="M231.633 60.8184H229.412V59.6523H231.633C232.02 59.6523 232.332 59.5898 232.57 59.4648C232.809 59.3398 232.982 59.168 233.092 58.9492C233.205 58.7266 233.262 58.4727 233.262 58.1875C233.262 57.918 233.205 57.666 233.092 57.4316C232.982 57.1934 232.809 57.002 232.57 56.8574C232.332 56.7129 232.02 56.6406 231.633 56.6406H229.863V64H228.393V55.4688H231.633C232.293 55.4688 232.854 55.5859 233.314 55.8203C233.779 56.0508 234.133 56.3711 234.375 56.7812C234.617 57.1875 234.738 57.6523 234.738 58.1758C234.738 58.7266 234.617 59.1992 234.375 59.5938C234.133 59.9883 233.779 60.291 233.314 60.502C232.854 60.7129 232.293 60.8184 231.633 60.8184ZM237.334 58.8672V64H235.922V57.6602H237.27L237.334 58.8672ZM239.273 57.6191L239.262 58.9316C239.176 58.916 239.082 58.9043 238.98 58.8965C238.883 58.8887 238.785 58.8848 238.688 58.8848C238.445 58.8848 238.232 58.9199 238.049 58.9902C237.865 59.0566 237.711 59.1543 237.586 59.2832C237.465 59.4082 237.371 59.5605 237.305 59.7402C237.238 59.9199 237.199 60.1211 237.188 60.3438L236.865 60.3672C236.865 59.9688 236.904 59.5996 236.982 59.2598C237.061 58.9199 237.178 58.6211 237.334 58.3633C237.494 58.1055 237.693 57.9043 237.932 57.7598C238.174 57.6152 238.453 57.543 238.77 57.543C238.855 57.543 238.947 57.5508 239.045 57.5664C239.146 57.582 239.223 57.5996 239.273 57.6191ZM239.736 60.9004V60.7656C239.736 60.3086 239.803 59.8848 239.936 59.4941C240.068 59.0996 240.26 58.7578 240.51 58.4688C240.764 58.1758 241.072 57.9492 241.436 57.7891C241.803 57.625 242.217 57.543 242.678 57.543C243.143 57.543 243.557 57.625 243.92 57.7891C244.287 57.9492 244.598 58.1758 244.852 58.4688C245.105 58.7578 245.299 59.0996 245.432 59.4941C245.564 59.8848 245.631 60.3086 245.631 60.7656V60.9004C245.631 61.3574 245.564 61.7812 245.432 62.1719C245.299 62.5625 245.105 62.9043 244.852 63.1973C244.598 63.4863 244.289 63.7129 243.926 63.877C243.562 64.0371 243.15 64.1172 242.689 64.1172C242.225 64.1172 241.809 64.0371 241.441 63.877C241.078 63.7129 240.77 63.4863 240.516 63.1973C240.262 62.9043 240.068 62.5625 239.936 62.1719C239.803 61.7812 239.736 61.3574 239.736 60.9004ZM241.148 60.7656V60.9004C241.148 61.1855 241.178 61.4551 241.236 61.709C241.295 61.9629 241.387 62.1855 241.512 62.377C241.637 62.5684 241.797 62.7188 241.992 62.8281C242.188 62.9375 242.42 62.9922 242.689 62.9922C242.951 62.9922 243.178 62.9375 243.369 62.8281C243.564 62.7188 243.725 62.5684 243.85 62.377C243.975 62.1855 244.066 61.9629 244.125 61.709C244.188 61.4551 244.219 61.1855 244.219 60.9004V60.7656C244.219 60.4844 244.188 60.2188 244.125 59.9688C244.066 59.7148 243.973 59.4902 243.844 59.2949C243.719 59.0996 243.559 58.9473 243.363 58.8379C243.172 58.7246 242.943 58.668 242.678 58.668C242.412 58.668 242.182 58.7246 241.986 58.8379C241.795 58.9473 241.637 59.0996 241.512 59.2949C241.387 59.4902 241.295 59.7148 241.236 59.9688C241.178 60.2188 241.148 60.4844 241.148 60.7656ZM248.631 64H247.213V57.25C247.213 56.7383 247.314 56.3066 247.518 55.9551C247.725 55.6035 248.02 55.3359 248.402 55.1523C248.789 54.9688 249.248 54.877 249.779 54.877C250.092 54.877 250.393 54.9102 250.682 54.9766C250.975 55.043 251.277 55.127 251.59 55.2285L251.373 56.377C251.174 56.3105 250.953 56.248 250.711 56.1895C250.469 56.127 250.189 56.0957 249.873 56.0957C249.447 56.0957 249.133 56.1934 248.93 56.3887C248.73 56.5801 248.631 56.8672 248.631 57.25V64ZM249.902 57.6602V58.6914H246.24V57.6602H249.902ZM252.258 57.6602V64H250.846V57.6602H252.258ZM255.346 55V64H253.928V55H255.346ZM259.688 64.1172C259.219 64.1172 258.795 64.041 258.416 63.8887C258.041 63.7324 257.721 63.5156 257.455 63.2383C257.193 62.9609 256.992 62.6348 256.852 62.2598C256.711 61.8848 256.641 61.4805 256.641 61.0469V60.8125C256.641 60.3164 256.713 59.8672 256.857 59.4648C257.002 59.0625 257.203 58.7188 257.461 58.4336C257.719 58.1445 258.023 57.9238 258.375 57.7715C258.727 57.6191 259.107 57.543 259.518 57.543C259.971 57.543 260.367 57.6191 260.707 57.7715C261.047 57.9238 261.328 58.1387 261.551 58.416C261.777 58.6895 261.945 59.0156 262.055 59.3945C262.168 59.7734 262.225 60.1914 262.225 60.6484V61.252H257.326V60.2383H260.83V60.127C260.822 59.873 260.771 59.6348 260.678 59.4121C260.588 59.1895 260.449 59.0098 260.262 58.873C260.074 58.7363 259.824 58.668 259.512 58.668C259.277 58.668 259.068 58.7188 258.885 58.8203C258.705 58.918 258.555 59.0605 258.434 59.248C258.312 59.4355 258.219 59.6621 258.152 59.9277C258.09 60.1895 258.059 60.4844 258.059 60.8125V61.0469C258.059 61.3242 258.096 61.582 258.17 61.8203C258.248 62.0547 258.361 62.2598 258.51 62.4355C258.658 62.6113 258.838 62.75 259.049 62.8516C259.26 62.9492 259.5 62.998 259.77 62.998C260.109 62.998 260.412 62.9297 260.678 62.793C260.943 62.6562 261.174 62.4629 261.369 62.2129L262.113 62.9336C261.977 63.1328 261.799 63.3242 261.58 63.5078C261.361 63.6875 261.094 63.834 260.777 63.9473C260.465 64.0605 260.102 64.1172 259.688 64.1172Z" fill="#9A9BB1"/>
<path fill-rule="evenodd" clip-rule="evenodd" d="M352.925 25C352.925 25.4142 352.589 25.75 352.175 25.75L336.175 25.75C335.761 25.75 335.425 25.4142 335.425 25C335.425 24.5858 335.761 24.25 336.175 24.25L352.175 24.25C352.589 24.25 352.925 24.5858 352.925 25Z" fill="#9A9BB1"/>
<path fill-rule="evenodd" clip-rule="evenodd" d="M352.925 30C352.925 30.4142 352.589 30.75 352.175 30.75L336.175 30.75C335.761 30.75 335.425 30.4142 335.425 30C335.425 29.5858 335.761 29.25 336.175 29.25L352.175 29.25C352.589 29.25 352.925 29.5858 352.925 30Z" fill="#9A9BB1"/>
<path fill-rule="evenodd" clip-rule="evenodd" d="M352.925 35C352.925 35.4142 352.589 35.75 352.175 35.75H336.175C335.761 35.75 335.425 35.4142 335.425 35C335.425 34.5858 335.761 34.25 336.175 34.25H352.175C352.589 34.25 352.925 34.5858 352.925 35Z" fill="#9A9BB1"/>
<path d="M331.706 55.4688H333.018L335.485 62.0488L337.946 55.4688H339.258L336 64H334.958L331.706 55.4688ZM331.108 55.4688H332.356L332.573 61.1641V64H331.108V55.4688ZM338.608 55.4688H339.862V64H338.391V61.1641L338.608 55.4688ZM341.198 60.9004V60.7656C341.198 60.3086 341.264 59.8848 341.397 59.4941C341.53 59.0996 341.721 58.7578 341.971 58.4688C342.225 58.1758 342.534 57.9492 342.897 57.7891C343.264 57.625 343.678 57.543 344.139 57.543C344.604 57.543 345.018 57.625 345.381 57.7891C345.749 57.9492 346.059 58.1758 346.313 58.4688C346.567 58.7578 346.76 59.0996 346.893 59.4941C347.026 59.8848 347.092 60.3086 347.092 60.7656V60.9004C347.092 61.3574 347.026 61.7812 346.893 62.1719C346.76 62.5625 346.567 62.9043 346.313 63.1973C346.059 63.4863 345.75 63.7129 345.387 63.877C345.024 64.0371 344.612 64.1172 344.151 64.1172C343.686 64.1172 343.27 64.0371 342.903 63.877C342.54 63.7129 342.231 63.4863 341.977 63.1973C341.723 62.9043 341.53 62.5625 341.397 62.1719C341.264 61.7812 341.198 61.3574 341.198 60.9004ZM342.61 60.7656V60.9004C342.61 61.1855 342.639 61.4551 342.698 61.709C342.756 61.9629 342.848 62.1855 342.973 62.377C343.098 62.5684 343.258 62.7188 343.454 62.8281C343.649 62.9375 343.881 62.9922 344.151 62.9922C344.413 62.9922 344.639 62.9375 344.831 62.8281C345.026 62.7188 345.186 62.5684 345.311 62.377C345.436 62.1855 345.528 61.9629 345.586 61.709C345.649 61.4551 345.68 61.1855 345.68 60.9004V60.7656C345.68 60.4844 345.649 60.2188 345.586 59.9688C345.528 59.7148 345.434 59.4902 345.305 59.2949C345.18 59.0996 345.02 58.9473 344.825 58.8379C344.633 58.7246 344.405 58.668 344.139 58.668C343.874 58.668 343.643 58.7246 343.448 58.8379C343.256 58.9473 343.098 59.0996 342.973 59.2949C342.848 59.4902 342.756 59.7148 342.698 59.9688C342.639 60.2188 342.61 60.4844 342.61 60.7656ZM349.694 58.8672V64H348.282V57.6602H349.629L349.694 58.8672ZM351.633 57.6191L351.622 58.9316C351.536 58.916 351.442 58.9043 351.34 58.8965C351.243 58.8887 351.145 58.8848 351.047 58.8848C350.805 58.8848 350.592 58.9199 350.409 58.9902C350.225 59.0566 350.071 59.1543 349.946 59.2832C349.825 59.4082 349.731 59.5605 349.665 59.7402C349.598 59.9199 349.559 60.1211 349.547 60.3438L349.225 60.3672C349.225 59.9688 349.264 59.5996 349.342 59.2598C349.42 58.9199 349.538 58.6211 349.694 58.3633C349.854 58.1055 350.053 57.9043 350.292 57.7598C350.534 57.6152 350.813 57.543 351.129 57.543C351.215 57.543 351.307 57.5508 351.405 57.5664C351.506 57.582 351.583 57.5996 351.633 57.6191ZM355.196 64.1172C354.727 64.1172 354.303 64.041 353.924 63.8887C353.549 63.7324 353.229 63.5156 352.963 63.2383C352.702 62.9609 352.5 62.6348 352.36 62.2598C352.219 61.8848 352.149 61.4805 352.149 61.0469V60.8125C352.149 60.3164 352.221 59.8672 352.366 59.4648C352.51 59.0625 352.711 58.7188 352.969 58.4336C353.227 58.1445 353.532 57.9238 353.883 57.7715C354.235 57.6191 354.616 57.543 355.026 57.543C355.479 57.543 355.875 57.6191 356.215 57.7715C356.555 57.9238 356.836 58.1387 357.059 58.416C357.286 58.6895 357.454 59.0156 357.563 59.3945C357.676 59.7734 357.733 60.1914 357.733 60.6484V61.252H352.834V60.2383H356.338V60.127C356.331 59.873 356.28 59.6348 356.186 59.4121C356.096 59.1895 355.958 59.0098 355.77 58.873C355.583 58.7363 355.333 58.668 355.02 58.668C354.786 58.668 354.577 58.7188 354.393 58.8203C354.213 58.918 354.063 59.0605 353.942 59.248C353.821 59.4355 353.727 59.6621 353.661 59.9277C353.598 60.1895 353.567 60.4844 353.567 60.8125V61.0469C353.567 61.3242 353.604 61.582 353.678 61.8203C353.756 62.0547 353.87 62.2598 354.018 62.4355C354.167 62.6113 354.346 62.75 354.557 62.8516C354.768 62.9492 355.008 62.998 355.278 62.998C355.618 62.998 355.92 62.9297 356.186 62.793C356.452 62.6562 356.682 62.4629 356.877 62.2129L357.622 62.9336C357.485 63.1328 357.307 63.3242 357.088 63.5078C356.87 63.6875 356.602 63.834 356.286 63.9473C355.973 64.0605 355.61 64.1172 355.196 64.1172Z" fill="#9A9BB1"/>
<defs>
<clipPath id="clip0_52_495">
<rect width="24" height="24" fill="white" transform="translate(135.875 18)"/>
</clipPath>
</defs>
</svg>
